<?xml version="1.0" encoding="utf-8"?>
<!-- Generator: Adobe Illustrator 17.1.0, SVG Export Plug-In . SVG Version: 6.00 Build 0)  -->
<!DOCTYPE svg PUBLIC "-//W3C//DTD SVG 1.1//EN" "http://www.w3.org/Graphics/SVG/1.1/DTD/svg11.dtd">
<svg version="1.1" id="Слой_1" xmlns="http://www.w3.org/2000/svg" xmlns:xlink="http://www.w3.org/1999/xlink" x="0px" y="0px"
	 viewBox="-40 29 693 723" enable-background="new -40 29 693 723" xml:space="preserve">
<path opacity="0.47" fill="#EE7C00" enable-background="new    " d="M323.4,405.7c2.4-2.2,3-41.9,10-68.7
	c16.3-62.3,33.1-98.1,67.1-126.3c22.3-18.5,58.3-48.3,39.1-81.8c-10.7-18.8-33.3-22.4-56.6,5.6c-28.9,34.7-54.8,147.6-60.2,204.1
	C321.5,351.9,317.8,410.6,323.4,405.7 M334.5,406.5c-0.1,6.7,7.3-14.6,9.8-21.3c16.1-39.3,31.5-57.2,67.6-78.7
	c14.4-8.6,65.1-23.3,77.1-31.9c15.6-11.3,23.1-32.4,7.1-49c-35.1-36.2-110.2,43.6-134.3,88.2C349.2,337.2,334.8,372.1,334.5,406.5z
	 M349.2,468.8c-1.3,21.1,12.1,64.3,18.4,75.8c19.1,35.2,44.9,47.8,65.4,51.9c42.3,8.6,72-29.7,47-56c-12.3-10.2-19.1,2.8-35.6,7.4
	c-9.2,2.6-17.4,3.2-26.7-0.1c-41.3-8.3-48.3-61.4-56.2-79.3C357.2,468.3,355.8,468.3,349.2,468.8z M524.8,527.6
	c9.5,0,12.1,2,10.3-16.4c-1.3-15.5-5.1-5.6-9.4-13.9c-0.4-1.8-0.6-3.5,3.8-4c36.4-6.8,35.6-43.5,16.3-61.9
	c-15.8-15-55.5-20.5-72.4,17.6C458.4,482.3,489.8,527.6,524.8,527.6z M556.6,520.7c90.1-46.5,55-153.5-9.7-187.5
	c-6-3.5-8.9-6.2-13,0.4c-1.5,2.5-2.8,6.2-1.5,8.8c21.4,15,52,37,54.7,84.1c1.8,32.4-12.9,52.8-36.3,70.3c-1.4,4.6,0.9,12.4,2.8,17.3
	L556.6,520.7z M430.8,326.8c-37.3,19.6-53.7,40-72.1,79.8c5.6-0.2,9.3,0,12.9-0.2c18.1-32,36.4-56.1,72.3-71
	c17.4-7.1,51.8-7.2,70.2-1.8c3.8-3.5,3-6.9,3-11.8C491.7,315.1,463.1,312.2,430.8,326.8z M306,408.4c-1.3-0.2-2.8-1.1-3.1-3
	c-1.4-8.8-1.8-43.2-2.4-53.6c-3.6-66.4-8.2-135.5-24.8-200.4c-2.7-15.7-7.2-40.5,0.1-54.4c14.6-27.9,45.7-27.9,60.3,0
	c7.3,13.8,2.7,38.6,0.1,54.4c-16.6,64.9-21.2,134-24.8,200.4c-0.6,10.5-1,44.9-2.4,53.6C308.8,407.3,307.3,408.2,306,408.4z
	 M288.6,405.7c-2.4-2.2-3-41.9-10-68.7c-16.3-62.3-33.1-98.1-67.1-126.3c-22.3-18.5-58.3-48.3-39.1-81.8
	c10.7-18.8,33.3-22.4,56.6,5.6c28.9,34.7,54.8,147.6,60.2,204.1C290.5,351.9,294.1,410.6,288.6,405.7z M277.4,406.5
	c0.1,6.7-7.3-14.6-9.8-21.3C251.4,346,236,328.1,200,306.6c-14.4-8.6-65.1-23.3-77.1-31.9c-15.6-11.3-23.1-32.4-7.1-49
	c35.1-36.2,110.2,43.6,134.3,88.2C262.8,337.2,277.1,372.1,277.4,406.5z M262.8,468.8c1.3,21.1-12.1,64.3-18.4,75.8
	c-19.1,35.2-44.9,47.8-65.4,51.9c-42.3,8.6-72-29.7-47-56c12.3-10.2,19.1,2.8,35.6,7.4c9.2,2.6,17.4,3.2,26.7-0.1
	c41.3-8.3,48.3-61.4,56.2-79.3C254.8,468.3,256.2,468.3,262.8,468.8z M87.2,527.6c-9.5,0-12.1,2-10.3-16.4
	c1.3-15.5,5.1-5.6,9.4-13.9c0.4-1.8,0.6-3.5-3.8-4c-36.4-6.8-35.6-43.5-16.3-61.9c15.8-15,55.5-20.5,72.5,17.6
	C153.5,482.3,122.2,527.6,87.2,527.6z M55.3,520.7c-90.1-46.5-55-153.5,9.7-187.5c6-3.5,8.9-6.2,13,0.4c1.5,2.5,2.8,6.2,1.5,8.8
	c-21.4,15-52,37-54.7,84.1c-1.8,32.4,12.9,52.8,36.3,70.3c1.4,4.6-0.9,12.4-2.8,17.3L55.3,520.7z M181.2,326.8
	c37.3,19.6,53.7,40,72.1,79.8c-5.6-0.2-9.3,0-12.9-0.2c-18.1-32-36.4-56.1-72.3-71c-17.4-7.1-51.8-7.2-70.2-1.8
	c-3.8-3.5-3-6.9-3-11.8C120.2,315.1,148.8,312.2,181.2,326.8z M306,423.7h-65.3c-5.9,0-10.8,4.9-10.8,10.8v1.6
	c0,5.9,4.9,10.8,10.8,10.8H306h65.3c5.9,0,10.8-4.9,10.8-10.8v-1.6c0-6-4.9-10.8-10.8-10.8H306z M306,709.1
	c3.5-0.1,2.7-32.5,17.8-48.8c18.8-22.3,5.8-49.9,10.8-53.1c2.5-1.6,4.1-0.3,7,6c6.2,13.3,27,25.9,43.3,24.6
	c12.6-1,32.3-9.7,32.3-21.9c0-3.1-8-4.1-12.8-5.3c-39.5-10.2-55.7-40.7-70.3-73.8c-10.8-24.4-11.2-50.3-15.9-67.9
	c-5.3-1.3-7.5-1.4-12.2-0.9c-4.7-0.4-6.9-0.3-12.2,0.9c-4.7,17.6-5.1,43.5-15.9,67.9c-14.6,33.1-30.8,63.5-70.3,73.8
	c-4.8,1.2-12.8,2.2-12.8,5.3c0,12.2,19.7,20.9,32.3,21.9c16.4,1.3,37.1-11.3,43.3-24.6c2.9-6.2,4.5-7.6,7-6c5,3.2-8,30.8,10.8,53.1
	C303.3,676.6,302.6,709.2,306,709.1z"/>
</svg>
