<svg xmlns="http://www.w3.org/2000/svg" viewBox="0 0 57 59"><path d="M30.116 30.401c.228-.201.277-3.907.928-6.394 1.518-5.804 3.087-9.141 6.253-11.763 2.081-1.724 5.426-4.499 3.641-7.616-1.001-1.748-3.099-2.089-5.272.517-2.696 3.232-5.102 13.75-5.608 19.008-.119 1.236-.461 6.706.058 6.248m1.042.081c-.005.626.682-1.363.916-1.98 1.502-3.66 2.934-5.324 6.293-7.333 1.345-.804 6.064-2.166 7.178-2.973 1.449-1.051 2.156-3.022.66-4.562-3.272-3.367-10.264 4.064-12.508 8.213-1.177 2.176-2.513 5.429-2.539 8.635zm1.363 5.799c-.122 1.967 1.13 5.989 1.711 7.06 1.779 3.276 4.186 4.452 6.092 4.838 3.937.799 6.708-2.769 4.381-5.213-1.147-.949-1.777.259-3.32.69-.861.241-1.62.294-2.489-.01-3.848-.773-4.499-5.72-5.236-7.386-.396-.028-.526-.023-1.139.021zm16.353 5.477c.888 0 1.13.19.959-1.527-.118-1.447-.476-.526-.879-1.292-.041-.168-.055-.328.35-.373 3.386-.637 3.315-4.051 1.517-5.767-1.468-1.401-5.171-1.907-6.747 1.639-1.379 3.102 1.542 7.32 4.8 7.32zm2.966-.644c8.393-4.332 5.126-14.297-.899-17.461-.555-.327-.825-.581-1.209.04-.142.23-.258.578-.136.821 1.992 1.398 4.843 3.448 5.09 7.834.171 3.022-1.198 4.921-3.381 6.546-.13.433.08 1.155.258 1.612l.277.608zm-11.721-18.06c-3.476 1.829-5.006 3.722-6.716 7.428.521-.015.865.003 1.205-.014 1.683-2.981 3.392-5.223 6.733-6.615 1.624-.665 4.827-.67 6.537-.168.357-.323.275-.645.275-1.097-2.354-.619-5.021-.894-8.034.466zm-11.622 7.605c-.121-.021-.26-.104-.288-.278-.131-.817-.169-4.021-.222-4.996-.332-6.185-.762-12.62-2.307-18.663-.248-1.465-.669-3.773.007-5.063 1.363-2.601 4.256-2.601 5.619 0 .676 1.289.255 3.598.007 5.063-1.546 6.043-1.976 12.478-2.308 18.663-.052.974-.091 4.179-.221 4.996-.027.174-.166.256-.287.278zm-1.62-.258c-.228-.201-.277-3.907-.927-6.394-1.519-5.804-3.087-9.141-6.253-11.763-2.081-1.724-5.426-4.499-3.641-7.616 1.001-1.748 3.099-2.089 5.272.517 2.696 3.232 5.102 13.75 5.607 19.008.12 1.236.461 6.706-.058 6.248zm-1.042.081c.005.626-.682-1.363-.916-1.98-1.502-3.66-2.934-5.324-6.293-7.333-1.344-.804-6.064-2.166-7.178-2.973-1.449-1.051-2.156-3.022-.66-4.562 3.272-3.367 10.264 4.064 12.508 8.213 1.178 2.176 2.514 5.429 2.539 8.635zm-1.363 5.799c.122 1.967-1.13 5.989-1.711 7.06-1.779 3.276-4.186 4.452-6.092 4.838-3.937.799-6.708-2.769-4.381-5.213 1.147-.949 1.777.259 3.319.69.861.241 1.621.294 2.489-.01 3.848-.773 4.499-5.72 5.236-7.386.397-.028.527-.023 1.14.021zM8.119 41.758c-.888 0-1.13.19-.959-1.527.118-1.447.476-.526.879-1.292.041-.168.055-.328-.35-.373-3.386-.637-3.315-4.051-1.517-5.767 1.468-1.401 5.171-1.907 6.748 1.639 1.378 3.102-1.543 7.32-4.801 7.32zm-2.966-.644c-8.393-4.332-5.126-14.297.899-17.461.555-.327.825-.581 1.209.04.142.23.258.578.136.821-1.992 1.398-4.843 3.448-5.09 7.834-.17 3.022 1.199 4.921 3.381 6.546.13.433-.08 1.155-.258 1.612l-.277.608zm11.721-18.06c3.475 1.829 5.006 3.722 6.716 7.428-.521-.015-.865.003-1.206-.014-1.683-2.981-3.392-5.223-6.733-6.615-1.624-.665-4.827-.67-6.537-.168-.358-.323-.275-.645-.275-1.097 2.355-.619 5.022-.894 8.035.466zm11.623 9.024h-6.079a1.01 1.01 0 0 0-1.004 1.008v.149a1.01 1.01 0 0 0 1.004 1.008h12.158a1.01 1.01 0 0 0 1.004-1.008v-.149c0-.555-.452-1.008-1.004-1.008h-6.079zm0 26.584c.323-.005.253-3.03 1.657-4.543 1.754-2.079.54-4.649 1.005-4.95.233-.151.378-.026.65.555.582 1.24 2.511 2.416 4.035 2.293 1.177-.094 3.01-.908 3.01-2.043 0-.291-.743-.382-1.189-.497-3.68-.953-5.187-3.788-6.548-6.871-1.005-2.277-1.045-4.685-1.482-6.324-.498-.117-.696-.129-1.138-.088-.442-.041-.64-.028-1.138.088-.437 1.639-.477 4.047-1.482 6.324-1.361 3.084-2.868 5.918-6.548 6.871-.445.115-1.189.206-1.189.497 0 1.135 1.834 1.949 3.01 2.043 1.525.122 3.454-1.053 4.035-2.293.272-.581.418-.706.65-.555.465.301-.749 2.871 1.005 4.95 1.404 1.512 1.339 4.549 1.657 4.543z" opacity=".47" fill-rule="evenodd" clip-rule="evenodd" fill="#ee7c00"/></svg>