<svg xmlns="http://www.w3.org/2000/svg" viewBox="-69 0 744 792"><path opacity=".47" fill="#EE7C00" d="M323.4 405.7c2.4-2.2 3-41.9 10-68.7 16.3-62.3 33.1-98.1 67.1-126.3 22.3-18.5 58.3-48.3 39.1-81.8-10.7-18.8-33.3-22.4-56.6 5.6-28.9 34.7-54.8 147.6-60.2 204.1-1.3 13.3-5 72 .6 67.1m11.1.8c-.1 6.7 7.3-14.6 9.8-21.3 16.1-39.3 31.5-57.2 67.6-78.7 14.4-8.6 65.1-23.3 77.1-31.9 15.6-11.3 23.1-32.4 7.1-49-35.1-36.2-110.2 43.6-134.3 88.2-12.6 23.4-27 58.3-27.3 92.7zm14.7 62.3c-1.3 21.1 12.1 64.3 18.4 75.8 19.1 35.2 44.9 47.8 65.4 51.9 42.3 8.6 72-29.7 47-56-12.3-10.2-19.1 2.8-35.6 7.4-9.2 2.6-17.4 3.2-26.7-.1-41.3-8.3-48.3-61.4-56.2-79.3-4.3-.2-5.7-.2-12.3.3zm175.6 58.8c9.5 0 12.1 2 10.3-16.4-1.3-15.5-5.1-5.6-9.4-13.9-.4-1.8-.6-3.5 3.8-4 36.4-6.8 35.6-43.5 16.3-61.9-15.8-15-55.5-20.5-72.4 17.6-15 33.3 16.4 78.6 51.4 78.6zm31.8-6.9c90.1-46.5 55-153.5-9.7-187.5-6-3.5-8.9-6.2-13 .4-1.5 2.5-2.8 6.2-1.5 8.8 21.4 15 52 37 54.7 84.1 1.8 32.4-12.9 52.8-36.3 70.3-1.4 4.6.9 12.4 2.8 17.3l3 6.6zM430.8 326.8c-37.3 19.6-53.7 40-72.1 79.8 5.6-.2 9.3 0 12.9-.2 18.1-32 36.4-56.1 72.3-71 17.4-7.1 51.8-7.2 70.2-1.8 3.8-3.5 3-6.9 3-11.8-25.4-6.7-54-9.6-86.3 5zM306 408.4c-1.3-.2-2.8-1.1-3.1-3-1.4-8.8-1.8-43.2-2.4-53.6-3.6-66.4-8.2-135.5-24.8-200.4-2.7-15.7-7.2-40.5.1-54.4 14.6-27.9 45.7-27.9 60.3 0 7.3 13.8 2.7 38.6.1 54.4-16.6 64.9-21.2 134-24.8 200.4-.6 10.5-1 44.9-2.4 53.6-.2 1.9-1.7 2.8-3 3zm-17.4-2.7c-2.4-2.2-3-41.9-10-68.7-16.3-62.3-33.1-98.1-67.1-126.3-22.3-18.5-58.3-48.3-39.1-81.8 10.7-18.8 33.3-22.4 56.6 5.6 28.9 34.7 54.8 147.6 60.2 204.1 1.3 13.3 4.9 72-.6 67.1zm-11.2.8c.1 6.7-7.3-14.6-9.8-21.3-16.2-39.2-31.6-57.1-67.6-78.6-14.4-8.6-65.1-23.3-77.1-31.9-15.6-11.3-23.1-32.4-7.1-49 35.1-36.2 110.2 43.6 134.3 88.2 12.7 23.3 27 58.2 27.3 92.6zm-14.6 62.3c1.3 21.1-12.1 64.3-18.4 75.8-19.1 35.2-44.9 47.8-65.4 51.9-42.3 8.6-72-29.7-47-56 12.3-10.2 19.1 2.8 35.6 7.4 9.2 2.6 17.4 3.2 26.7-.1 41.3-8.3 48.3-61.4 56.2-79.3 4.3-.2 5.7-.2 12.3.3zM87.2 527.6c-9.5 0-12.1 2-10.3-16.4 1.3-15.5 5.1-5.6 9.4-13.9.4-1.8.6-3.5-3.8-4-36.4-6.8-35.6-43.5-16.3-61.9 15.8-15 55.5-20.5 72.5 17.6 14.8 33.3-16.5 78.6-51.5 78.6zm-31.9-6.9C-34.8 474.2.3 367.2 65 333.2c6-3.5 8.9-6.2 13 .4 1.5 2.5 2.8 6.2 1.5 8.8-21.4 15-52 37-54.7 84.1-1.8 32.4 12.9 52.8 36.3 70.3 1.4 4.6-.9 12.4-2.8 17.3l-3 6.6zm125.9-193.9c37.3 19.6 53.7 40 72.1 79.8-5.6-.2-9.3 0-12.9-.2-18.1-32-36.4-56.1-72.3-71-17.4-7.1-51.8-7.2-70.2-1.8-3.8-3.5-3-6.9-3-11.8 25.3-6.7 53.9-9.6 86.3 5zM306 423.7h-65.3c-5.9 0-10.8 4.9-10.8 10.8v1.6c0 5.9 4.9 10.8 10.8 10.8h130.6c5.9 0 10.8-4.9 10.8-10.8v-1.6c0-6-4.9-10.8-10.8-10.8H306zm0 285.4c3.5-.1 2.7-32.5 17.8-48.8 18.8-22.3 5.8-49.9 10.8-53.1 2.5-1.6 4.1-.3 7 6 6.2 13.3 27 25.9 43.3 24.6 12.6-1 32.3-9.7 32.3-21.9 0-3.1-8-4.1-12.8-5.3-39.5-10.2-55.7-40.7-70.3-73.8-10.8-24.4-11.2-50.3-15.9-67.9-5.3-1.3-7.5-1.4-12.2-.9-4.7-.4-6.9-.3-12.2.9-4.7 17.6-5.1 43.5-15.9 67.9-14.6 33.1-30.8 63.5-70.3 73.8-4.8 1.2-12.8 2.2-12.8 5.3 0 12.2 19.7 20.9 32.3 21.9 16.4 1.3 37.1-11.3 43.3-24.6 2.9-6.2 4.5-7.6 7-6 5 3.2-8 30.8 10.8 53.1 15.1 16.3 14.4 48.9 17.8 48.8z"/></svg>